<svg xmlns="http://www.w3.org/2000/svg" viewBox="0 0 1200 630" role="img" aria-labelledby="title desc">
  <title id="title">COSMOS-CQA social preview</title>
  <desc id="desc">COSMOS-CQA research-only public portal preview for cosmology artifact QA evidence, provenance, and replay.</desc>
  <defs>
    <linearGradient id="bg" x1="0" x2="1" y1="0" y2="1">
      <stop offset="0" stop-color="#071014"/>
      <stop offset="0.48" stop-color="#101820"/>
      <stop offset="1" stop-color="#090d10"/>
    </linearGradient>
    <linearGradient id="signal" x1="220" x2="1080" y1="120" y2="520" gradientUnits="userSpaceOnUse">
      <stop stop-color="#43d6c5"/>
      <stop offset="0.5" stop-color="#9b8cff"/>
      <stop offset="1" stop-color="#f0c96a"/>
    </linearGradient>
    <filter id="soft-shadow" x="-20%" y="-20%" width="140%" height="140%">
      <feDropShadow dx="0" dy="18" stdDeviation="28" flood-color="#000000" flood-opacity="0.42"/>
    </filter>
    <pattern id="grid" width="42" height="42" patternUnits="userSpaceOnUse">
      <path d="M42 0H0v42" fill="none" stroke="#2a3942" stroke-width="1" opacity="0.5"/>
    </pattern>
  </defs>
  <rect width="1200" height="630" fill="url(#bg)"/>
  <rect width="1200" height="630" fill="url(#grid)" opacity="0.34"/>
  <g opacity="0.76">
    <path d="M690 73c115 78 211 117 329 94" fill="none" stroke="#43d6c5" stroke-width="2"/>
    <path d="M644 142c143 68 248 81 367 35" fill="none" stroke="#9b8cff" stroke-width="2"/>
    <path d="M634 505c147-56 266-51 405 11" fill="none" stroke="#f0c96a" stroke-width="2"/>
  </g>
  <g filter="url(#soft-shadow)" opacity="0.95">
    <circle cx="850" cy="322" r="198" fill="none" stroke="url(#signal)" stroke-width="3"/>
    <circle cx="850" cy="322" r="142" fill="none" stroke="#43d6c5" stroke-width="2" opacity="0.72"/>
    <circle cx="850" cy="322" r="88" fill="none" stroke="#f0c96a" stroke-width="2" opacity="0.72"/>
    <path d="M682 381c79-128 194-190 343-172" fill="none" stroke="#43d6c5" stroke-width="7" stroke-linecap="round"/>
    <path d="M712 438c104-59 210-69 319-30" fill="none" stroke="#f0c96a" stroke-width="7" stroke-linecap="round"/>
    <rect x="872" y="217" width="120" height="86" rx="8" fill="none" stroke="#ff7d8f" stroke-width="5"/>
    <rect x="743" y="367" width="104" height="74" rx="8" fill="none" stroke="#9b8cff" stroke-width="5"/>
  </g>
  <g transform="translate(82 88)">
    <rect x="0" y="0" width="70" height="70" rx="18" fill="#090d10" stroke="url(#signal)" stroke-width="4"/>
    <circle cx="48" cy="21" r="6" fill="#ff7d8f"/>
    <path d="M20 43c13-18 29-27 48-25" fill="none" stroke="#43d6c5" stroke-width="4" stroke-linecap="round"/>
  </g>
  <text x="82" y="239" fill="#f2f7f4" font-family="Inter, Segoe UI, Arial, sans-serif" font-size="92" font-weight="900" letter-spacing="0">COSMOS-CQA</text>
  <text x="86" y="307" fill="#f0c96a" font-family="Inter, Segoe UI, Arial, sans-serif" font-size="30" font-weight="800" letter-spacing="0">Research-only public portal</text>
  <text x="86" y="374" fill="#dce8e3" font-family="Inter, Segoe UI, Arial, sans-serif" font-size="39" font-weight="650" letter-spacing="0">Cosmology artifact QA evidence,</text>
  <text x="86" y="426" fill="#dce8e3" font-family="Inter, Segoe UI, Arial, sans-serif" font-size="39" font-weight="650" letter-spacing="0">provenance, and deterministic replay.</text>
  <text x="86" y="528" fill="#aab7b7" font-family="Inter, Segoe UI, Arial, sans-serif" font-size="25" font-weight="650" letter-spacing="0">cosmos-cqa.org</text>
  <text x="86" y="564" fill="#aab7b7" font-family="Inter, Segoe UI, Arial, sans-serif" font-size="21" font-weight="500" letter-spacing="0">Stewarded by AI-Bio Synergy Holdings LLC</text>
</svg>
